/* XPM */
static char *Free_Converter_com_bitcoin16_54343448[] = {
/* columns rows colors chars-per-pixel */
"16 16 22 1 ",
"  c #DD5314",
". c #DE5517",
"X c #DF5A1E",
"o c #DF5C20",
"O c #E06025",
"+ c #E1642C",
"@ c #E26C36",
"# c #E36E38",
"$ c #EA9670",
"% c #EB9872",
"& c #ECA07D",
"* c #EDA584",
"= c #EEA787",
"- c #EFAE91",
"; c #F0B396",
": c #F2BFA7",
"> c #F4C6B0",
", c #F5C9B5",
"< c #F6D0BF",
"1 c #F7D6C6",
"2 c #F9DFD3",
"3 c None",
/* pixels */
"3333333333333333",
"333333o333333333",
"333333X33oo33333",
"333o33O333333333",
"3333+>:$333o3333",
"3333#2<- 3ooo3o3",
"3oo =,1=333o3333",
"3333%;&@33333333",
"33333.333oo33333",
"33o33333ooo33333",
"33o33o33ooo33333",
"3333ooo333333333",
"33333o333333o333",
"3333333333333333",
"33333o3333333333",
"3333333333333333"
};
