/* XPM */
static char *Free_Converter_com_bitcoin32_56993449[] = {
/* columns rows colors chars-per-pixel */
"32 32 67 1 ",
"  c #DC4D0C",
". c #DD5314",
"X c #DD5415",
"o c #DD5416",
"O c #DD5516",
"+ c #DD5517",
"@ c #DE5416",
"# c #DE5516",
"$ c #DE5618",
"% c #DE5719",
"& c #DE581A",
"* c #DF581A",
"= c #DE581B",
"- c #DE591C",
"; c #DF591C",
": c #DE5A1D",
"> c #DF5A1D",
", c #DF5C1F",
"< c #DF5B20",
"1 c #DF5C20",
"2 c #DF5C21",
"3 c #E05D21",
"4 c #E05E23",
"5 c #E06026",
"6 c #E06127",
"7 c #E16329",
"8 c #E1632A",
"9 c #E26A34",
"0 c #E26B35",
"q c #E36F3B",
"w c #E37440",
"e c #E47643",
"r c #E68050",
"t c #E68254",
"y c #E7875C",
"u c #E98A5F",
"i c #E88B5F",
"p c #E88A60",
"a c #E98C62",
"s c #E98F66",
"d c #EC9F7C",
"f c #EDA281",
"g c #EDA482",
"h c #EEA888",
"j c #EFAC8D",
"k c #EEAD8E",
"l c #F4C9B5",
"z c #F6D1C0",
"x c #F7D7C9",
"c c #F8DBCD",
"v c #F8DCCF",
"b c #F8DDD0",
"n c #F9DED1",
"m c #F9E0D4",
"M c #F9E3D9",
"N c #FAE4DA",
"B c #FBE9E0",
"V c #FBE9E1",
"C c #FCEEE8",
"Z c #FCEFE9",
"A c #FCF0EA",
"S c #FCF0EB",
"D c #FDF4EF",
"F c #FEFAF8",
"G c #FFFDFD",
"H c gray100",
"J c None",
/* pixels */
"JJJJJJJJJJJJJJJJJJJJJJJJJJJJJJJJ",
"JJJJJJJJJJJJJ1JJJJJJJJJJJJJJJJJJ",
"JJJJJJJJJJJJJJJJJJJJJJ11JJJJJJJJ",
"JJJJJJJJJJJJ111JJJJJJJJ1JJJJJJJJ",
"JJJJJJJJJJJ1111JJ1111JJJJJJJJJJJ",
"JJJJJ1JJJJJJJJJJJ11111JJJJJJJJJJ",
"JJJJJJ111JJJJJJJJJ111JJJJJJJJJJJ",
"JJJJJJ11JJJ,4%+1JJJJJJJJJJJJJJJJ",
"JJJJJJ1JJ0glzjw*1JJJJJJJJJJJJJJJ",
"JJJJJJJJ*0CHdBFy+JJJJ1111JJJJJJJ",
"JJJJJJJJ-4Cb+xHi.JJJ11111JJJ1JJJ",
"JJJJ1JJ1+tHMbHh+<JJJ111111JJ11JJ",
"JJJ11JJ1 jHpsHb6-JJJJ1111JJJ11JJ",
"J1J11JJ-qNH8aHA8-JJJJJ11JJJJJJJJ",
"JJJ11JJ%gDSmVmp+JJJJJJJJJJJJJJJJ",
"JJJJJJJ1%ees04+JJJJJJJJJJJJJJJJJ",
"JJJJJJJJ,%%+*-JJJJJ1JJJJJJJJJJJJ",
"JJJJ11JJJJJJJJJJJ11111JJJJJJJJJJ",
"JJJJ111JJJJJJJJJJ11111JJJJJJJJJJ",
"JJJJ111JJJJJJJJJ1111111JJJJJJJJJ",
"JJJJ111JJJ-4JJJJJ11111JJJJJJJJJJ",
"JJJJ11JJJ4111JJJJ11111JJJJJJJJJJ",
"JJ1JJJJJJ11111JJJJJ1JJJJJJJJJJJJ",
"JJ11JJJJJ11111JJJJJJJJJJ11JJJJJJ",
"JJJJJJJJJ1111JJJJJJJJJJ111JJJJJJ",
"JJJJJJJJJJJ1JJJJJJJJJJJ111JJJJJJ",
"JJJJJJJJJJJJJJJJJJJJJJJJJJJJJJJJ",
"JJJJJJJJJJJJJJJJJJJJJJJJJJJJJJJJ",
"JJJJJJJJJJ111JJJJJJJJJJJJJJJJJJJ",
"JJJJJJJJJJJ11JJJJJJJJJJJJJJJJJJJ",
"JJJJJJJJJJJJJJJJJJJJJJJJJJJJJJJJ",
"JJJJJJJJJJJJJJJJJJJJJJJJJJJJJJJJ"
};
