/* XPM */
static char *Free_Converter_com_bitcoin64_14423449[] = {
/* columns rows colors chars-per-pixel */
"64 64 137 2 ",
"   c #DB4601",
".  c #DB4907",
"X  c #DB4B09",
"o  c #DC4B08",
"O  c #DC4B0A",
"+  c #DC4C0A",
"@  c #DC4D0B",
"#  c #DC4E0C",
"$  c #DD4E0D",
"%  c #DC4F0E",
"&  c #DD5010",
"*  c #DD5212",
"=  c #DD5213",
"-  c #DD5313",
";  c #DD5314",
":  c #DD5415",
">  c #DE5415",
",  c #DD5516",
"<  c #DD5517",
"1  c #DE5416",
"2  c #DE5516",
"3  c #DD5719",
"4  c #DE5618",
"5  c #DE5718",
"6  c #DE5719",
"7  c #DE571A",
"8  c #DE5819",
"9  c #DE581A",
"0  c #DE581B",
"q  c #DE591B",
"w  c #DF591B",
"e  c #DE591C",
"r  c #DF591C",
"t  c #DF591D",
"y  c #DE5A1D",
"u  c #DF5A1D",
"i  c #DF5A1E",
"p  c #DF5B1E",
"a  c #DF5B1F",
"s  c #DF5C1F",
"d  c #DF5C20",
"f  c #DF5D20",
"g  c #DF5C21",
"h  c #DF5D21",
"j  c #DF5E24",
"k  c #E05E23",
"l  c #E05F23",
"z  c #E06025",
"x  c #E06127",
"c  c #E06227",
"v  c #E06228",
"b  c #E06229",
"n  c #E0632B",
"m  c #E1642B",
"M  c #E1652C",
"N  c #E16830",
"B  c #E26933",
"V  c #E26A33",
"C  c #E26D37",
"Z  c #E36D38",
"A  c #E26E39",
"S  c #E36E39",
"D  c #E3703B",
"F  c #E3713D",
"G  c #E3723E",
"H  c #E47543",
"J  c #E47644",
"K  c #E47846",
"L  c #E57846",
"P  c #E68254",
"I  c #E8895E",
"U  c #E88A5F",
"Y  c #E88B60",
"T  c #E98D64",
"R  c #E99168",
"E  c #E99169",
"W  c #EA936C",
"Q  c #EA946D",
"!  c #EB9670",
"~  c #EB9B77",
"^  c #EB9D79",
"/  c #EC9D79",
"(  c #EC9E7B",
")  c #EC9F7C",
"_  c #EDA483",
"`  c #EDA584",
"'  c #EEA686",
"]  c #EFAB8C",
"[  c #EEAC8C",
"{  c #F0B093",
"}  c #F1B59A",
"|  c #F1B69B",
" . c #F1B69C",
".. c #F2BCA3",
"X. c #F2BDA4",
"o. c #F2BDA5",
"O. c #F3C5B0",
"+. c #F5CAB6",
"@. c #F5CDBA",
"#. c #F5CDBB",
"$. c #F6D0BF",
"%. c #F6D1C1",
"&. c #F6D2C1",
"*. c #F6D2C2",
"=. c #F7D4C4",
"-. c #F7D7C8",
";. c #F7D8C9",
":. c #F8DCCF",
">. c #F8DDD0",
",. c #F8DDD1",
"<. c #F9DED2",
"1. c #F9DFD3",
"2. c #F9E0D4",
"3. c #F9E1D6",
"4. c #F9E1D7",
"5. c #FAE5DB",
"6. c #FAE6DC",
"7. c #FAE7DE",
"8. c #FAE7DF",
"9. c #FAE8DF",
"0. c #FAE8E0",
"q. c #FCECE6",
"w. c #FCF1EC",
"e. c #FCF2ED",
"r. c #FCF2EE",
"t. c #FDF2EE",
"y. c #FDF3EF",
"u. c #FDF6F2",
"i. c #FDF6F3",
"p. c #FDF8F5",
"a. c #FEF9F8",
"s. c #FEFCFB",
"d. c #FEFDFC",
"f. c #FFFDFD",
"g. c #FFFEFD",
"h. c gray100",
"j. c None",
/* pixels */
"j.j.j.j.j.j.j.j.j.j.j.j.j.j.j.j.j.j.j.j.j.j.j.j.j.j.j.j.j.j.j.j.j.j.j.j.j.j.j.j.j.j.j.j.j.j.j.j.j.j.j.j.j.j.j.j.j.j.j.j.j.j.j.j.",
"j.j.j.j.j.j.j.j.j.j.j.j.j.j.j.j.j.j.j.j.j.j.j.j.j.j.j.j.j.j.j.j.j.j.j.j.j.j.j.j.j.j.j.j.j.j.j.j.j.j.j.j.j.j.j.j.j.j.j.j.j.j.j.j.",
"j.j.j.j.j.j.j.j.j.j.j.j.j.j.j.j.j.j.j.j.j.j.j.j.j.j.d d d d j.j.j.j.j.j.j.j.j.j.j.j.j.j.j.j.j.j.j.j.j.j.j.j.j.j.j.j.j.j.j.j.j.j.",
"j.j.j.j.j.j.j.j.j.j.j.j.j.j.j.j.j.j.j.j.j.j.j.j.j.j.d j.j.j.j.j.j.j.j.j.j.j.j.j.j.j.j.j.j.j.j.j.j.j.j.j.j.j.j.j.j.j.j.j.j.j.j.j.",
"j.j.j.j.j.j.j.j.j.j.j.j.j.j.j.j.j.j.j.j.j.j.j.j.j.j.j.j.j.j.j.j.j.j.j.j.j.j.j.j.j.j.j.j.j.d j.j.j.d j.j.j.j.j.j.j.j.j.j.j.j.j.j.",
"j.j.j.j.j.j.j.j.j.j.j.j.j.j.j.j.j.j.j.j.j.j.j.j.j.j.j.d d j.j.j.j.j.j.j.j.j.j.j.j.j.j.j.d d d d j.j.j.j.j.j.j.j.j.j.j.j.j.j.j.j.",
"j.j.j.j.j.j.j.j.j.j.j.j.j.j.j.j.j.j.j.j.j.j.j.j.d d d d d d j.j.j.j.j.j.j.j.j.j.j.j.j.j.j.d d d d j.j.j.j.j.j.j.j.j.j.j.j.j.j.j.",
"j.j.j.j.j.j.j.j.j.j.j.j.j.j.j.j.j.j.j.j.j.j.j.d d d d d d d j.j.j.j.j.j.j.j.d d j.j.j.j.j.j.j.j.j.j.j.j.j.j.j.j.j.j.j.j.j.j.j.j.",
"j.j.j.j.j.j.j.j.j.j.j.j.j.j.j.j.j.j.j.j.j.j.d d d d d d d d j.j.j.j.j.d d d d d d d d j.j.j.j.j.j.j.j.j.j.j.j.j.j.j.j.j.j.j.j.j.",
"j.j.j.j.j.j.j.j.j.j.j.j.d j.j.j.j.j.j.j.j.j.d d d d d d d j.j.j.j.j.d d d d d d d d d j.j.j.j.j.j.j.j.j.j.j.j.j.j.j.j.j.j.j.j.j.",
"j.j.j.j.j.j.j.j.j.j.j.d d j.j.j.j.j.j.j.j.j.j.d d d d j.j.j.j.j.j.j.d d d d d d d d d d j.j.j.j.j.j.j.j.j.j.j.j.j.j.j.j.j.j.j.j.",
"j.j.j.j.j.j.j.j.j.j.d d j.j.j.d d j.j.j.j.j.j.j.j.j.j.j.j.j.j.j.j.j.d d d d d d d d d d j.j.j.j.j.j.j.j.j.j.j.j.j.j.j.j.j.j.j.j.",
"j.j.j.j.j.j.j.j.j.d d j.j.d d d d d j.j.j.j.j.j.j.j.j.j.j.j.j.j.j.j.j.d d d d d d d d j.j.j.j.j.j.j.j.j.j.j.j.j.j.j.j.j.j.j.j.j.",
"j.j.j.j.j.j.j.j.j.j.j.j.d d d d d d j.j.j.j.j.j.j.j.j.j.j.j.j.j.j.j.j.j.j.d d d d j.j.j.j.j.j.j.j.j.j.j.j.j.j.j.j.j.j.j.j.j.j.j.",
"j.j.j.j.j.j.j.j.j.j.j.j.d d d d k j.j.j.j.j.p p s w e k d d d j.j.j.j.j.j.j.j.j.j.j.j.j.j.j.j.j.j.j.j.j.j.j.j.j.j.j.j.j.j.j.j.j.",
"j.j.j.j.j.j.j.j.j.j.j.d d d d d j.j.j.j.p p s z p x x e d d d k j.j.j.j.j.j.j.j.j.j.j.j.j.j.j.j.j.j.j.j.j.j.j.j.j.j.j.j.j.j.j.j.",
"j.j.j.j.j.j.j.j.j.j.j.d d d d j.j.j.j.9 = N :.W K 6.Y + = < k e d j.j.j.j.j.j.j.j.j.j.j.j.j.j.j.j.j.j.j.j.j.j.j.j.j.j.j.j.j.j.j.",
"j.j.j.j.j.j.j.j.j.j.j.j.d d j.j.j.j.< ! @.;.h.<.9.h.<.O.[ F ; k d d j.j.j.j.j.j.j.j.j.j.j.j.j.j.j.j.j.j.j.j.j.j.j.j.j.j.j.j.j.j.",
"j.j.j.j.j.j.j.j.j.j.j.j.j.j.j.j.j.d 4 ^ u.h.h.h.%.@.h.h.h.e.Y < d d j.j.j.j.j.j.j.j.d d d d d d j.j.j.j.j.j.j.j.j.j.j.j.j.j.j.j.",
"j.j.j.j.j.j.j.j.j.j.j.j.j.j.j.j.d d d # | h.h.e.n X | h.h.h.-.4 e d d j.j.j.j.j.j.d d d d d d d d d j.j.j.j.j.j.j.j.j.j.j.j.j.j.",
"j.j.j.j.j.j.j.j.j.j.j.j.j.j.j.d d d p 9 =.h.h.%.4 O ^ h.h.h.%.4 s k p j.j.j.j.j.d d d d d d d d d d d j.j.j.j.j.j.j.j.j.j.j.j.j.",
"j.j.j.j.j.j.j.j.j.j.j.j.j.j.j.d d p 9 C u.h.h._   M <.h.h.h.Q ; k e d j.j.j.j.j.d d d d d d d d d d d j.j.j.j.j.d d d j.j.j.j.j.",
"j.j.j.j.j.j.j.j.d d j.j.j.j.d d d d = W h.h.h.-...6.h.h.5.) 9 s d d d j.j.j.j.j.d d d d d d d d d d d j.j.j.j.j.d d d d j.j.j.j.",
"j.j.j.j.j.j.j.d d d d j.j.j.d d d d = ..h.h.p.2.h.h.h.a.] = e d d d d j.j.j.j.j.j.d d d d d d d d d d j.j.j.j.j.d d d d j.j.j.j.",
"j.j.j.j.j.j.d d d d d j.j.j.d d d e j 2.h.h.$.< Z :.h.h.h. .4 p d d d j.j.j.j.j.j.d d d d d d d d d d j.j.j.j.j.j.d d d d j.j.d ",
"j.j.j.j.j.j.d d d d d j.j.j.d d d 4 K h.h.h.] % o ~ h.h.h.i.B 9 d d j.j.j.j.j.j.j.j.d d d d d d d d d j.j.j.j.j.j.d d d d j.j.d ",
"j.j.d d j.j.d d d d d j.j.j.d d e . ^ h.h.h.P < % ` h.h.h.e.B e d d j.j.j.j.j.j.j.j.j.d d d d d d d j.j.j.j.j.j.j.j.d d j.j.j.j.",
"j.j.d j.j.d d d d d j.j.j.j.d e b I 0.h.h.e.m . x <.h.h.h.@.4 p d j.j.j.j.j.j.j.j.j.j.j.j.j.j.j.j.j.j.j.j.j.j.j.j.j.j.j.j.j.j.j.",
"j.j.d j.j.d d d d d j.j.j.j.d = ` h.h.h.h.h.$.| <.h.h.h.q.J < d d j.j.j.j.j.j.j.j.j.j.j.j.j.j.j.j.j.j.j.j.j.j.j.j.j.j.j.j.j.j.j.",
"j.j.d j.j.j.d d d j.j.j.j.j.d e H T <.h.+.w.h.h.h.u.6...Z < d d j.j.j.j.j.j.j.j.j.j.j.j.j.j.j.j.j.j.j.j.j.j.j.j.j.j.j.j.j.j.j.j.",
"j.j.j.j.j.j.j.j.j.j.j.j.j.j.d d 4 % W { 5 o.2.F C Z b ; 9 d d j.j.j.j.j.j.j.j.j.j.j.j.j.j.j.j.j.j.j.j.j.j.j.j.j.j.j.j.j.j.j.j.j.",
"j.j.j.j.j.j.j.j.j.j.j.j.j.j.j.d d d < = p d m 9 4 4 e d d d j.j.j.j.j.j.j.j.j.j.j.j.j.j.j.j.j.j.j.j.j.j.j.j.j.j.j.j.j.j.j.j.j.j.",
"j.j.j.j.j.j.j.j.j.j.j.j.j.j.j.j.d d d d k e e d d d d d d j.j.j.j.j.j.j.j.j.j.j.j.j.j.j.j.j.j.j.j.j.j.j.j.j.j.j.j.j.j.j.j.j.j.j.",
"j.j.j.j.j.j.j.j.j.j.j.j.j.j.j.j.j.d d d d d d d d d d j.j.j.j.j.j.j.j.j.d d d d d d j.j.j.j.j.j.j.j.j.j.j.j.j.j.j.j.j.j.j.j.j.j.",
"j.j.j.j.j.j.j.j.j.d d d j.j.j.j.j.j.j.d d d d d d j.j.j.j.j.j.j.j.j.j.d d d d d d d d j.j.j.j.j.j.j.j.j.j.j.j.j.j.j.j.j.j.j.j.j.",
"j.j.j.j.j.j.j.j.d d d d d j.j.j.j.j.j.j.j.j.j.j.j.j.j.j.j.j.j.j.j.j.d d d d d d d d d d j.j.j.j.j.j.j.j.j.j.j.j.j.j.j.j.j.j.j.j.",
"j.j.j.j.j.j.j.j.d d d d d j.j.j.j.j.j.j.j.j.j.j.j.j.j.j.j.j.j.j.j.d d d d d d d d d d d d j.j.j.j.j.j.j.j.j.j.j.j.j.j.j.j.j.j.j.",
"j.j.j.j.j.j.j.j.d d d d d d j.j.j.j.j.j.j.j.j.j.j.j.j.j.j.j.j.j.j.d d d d d d d d d d d d j.j.j.j.j.j.j.j.j.j.j.j.j.j.j.j.j.j.j.",
"j.j.j.j.j.j.j.d d d d d d d j.j.j.j.j.j.j.j.j.j.j.j.j.j.j.j.j.j.j.d d d d d d d d d d d d j.j.j.j.j.j.j.j.j.j.j.j.j.j.j.j.j.j.j.",
"j.j.j.j.j.j.j.d d d d d d d j.j.j.j.j.j.j.j.j.j.j.j.j.j.j.j.j.j.j.d d d d d d d d d d d d j.j.j.j.j.j.j.j.j.j.j.j.j.j.j.j.j.j.j.",
"j.j.j.j.j.j.j.j.d d d d d d j.j.j.j.j.j.j.d d j.j.j.j.j.j.j.j.j.j.d d d d d d d d d d d d j.j.j.j.j.j.j.j.j.j.j.j.j.j.j.j.j.j.j.",
"j.j.j.j.j.j.j.j.d d d d d j.j.j.j.j.j.d d d d d d j.j.j.j.j.j.j.j.d d d d d d d d d d d d j.j.j.j.j.j.j.j.j.j.j.j.j.j.j.j.j.j.j.",
"j.j.j.j.j.j.j.j.d d d d d j.j.j.j.j.d d d d d d d d j.j.j.j.j.j.j.j.d d d d d d d d d d j.j.j.j.j.j.j.j.j.j.j.j.j.j.j.j.j.j.j.j.",
"j.j.j.j.j.j.j.j.j.d d d j.j.j.j.j.j.d d d d d d d d d j.j.j.j.j.j.j.j.d d d d d d d d j.j.j.j.j.j.j.j.j.j.j.j.j.j.j.j.j.j.j.j.j.",
"j.j.j.j.j.d j.j.j.j.j.j.j.j.j.j.j.j.d d d d d d d d d j.j.j.j.j.j.j.j.j.d d d d d d j.j.j.j.j.j.j.j.j.j.j.j.j.j.j.j.j.j.j.j.j.j.",
"j.j.j.j.d d d j.j.j.j.j.j.j.j.j.j.j.d d d d d d d d d j.j.j.j.j.j.j.j.j.j.j.j.j.j.j.j.j.j.j.j.j.j.j.j.j.j.j.j.j.j.j.j.j.j.j.j.j.",
"j.j.j.j.j.d d j.j.j.j.j.j.j.j.j.j.j.d d d d d d d d d j.j.j.j.j.j.j.j.j.j.j.j.j.j.j.j.j.j.j.j.j.j.d d d j.j.j.j.j.j.j.j.j.j.j.j.",
"j.j.j.j.j.d d j.j.j.j.j.j.j.j.j.j.j.d d d d d d d d d j.j.j.j.j.j.j.j.j.j.j.j.j.j.j.j.j.j.j.j.j.d d d d d j.j.j.j.j.j.j.j.j.j.j.",
"j.j.j.j.j.j.d j.j.j.j.j.j.j.j.j.j.j.j.d d d d d d d d j.j.j.j.j.j.j.j.j.j.j.j.j.j.j.j.j.j.j.j.d d d d d d j.j.j.j.j.j.j.j.j.j.j.",
"j.j.j.j.d j.j.j.j.j.j.j.j.j.j.j.j.j.j.d d d d d d d d j.j.j.j.j.j.j.j.j.j.j.j.j.j.j.j.j.j.j.d d d d d d j.j.j.j.j.j.j.j.j.j.j.j.",
"j.j.j.j.j.j.j.j.j.j.j.j.j.j.j.j.j.j.j.j.d d d d d d j.j.j.j.j.j.j.j.j.j.j.j.j.j.j.j.j.j.j.j.d d d d d d j.j.j.j.j.j.j.j.j.j.j.j.",
"j.j.j.j.j.j.j.j.j.j.j.j.j.j.j.j.j.j.j.j.j.j.j.j.j.j.j.j.j.j.j.j.j.j.j.j.j.j.j.j.j.j.j.j.j.j.d d d d d j.j.j.j.j.j.j.j.j.j.j.j.j.",
"j.j.j.j.j.j.j.j.j.j.j.j.j.j.j.j.j.j.j.j.j.j.j.j.j.j.j.j.j.j.j.j.j.j.j.j.j.j.j.j.j.j.j.j.j.j.j.d d j.j.j.j.j.d j.j.j.j.j.j.j.j.j.",
"j.j.j.j.j.j.j.j.j.j.j.j.j.j.j.j.j.j.j.j.j.j.j.j.j.j.j.j.j.j.j.j.j.j.j.j.j.j.j.j.j.j.j.j.j.j.j.j.j.j.j.j.j.d d j.j.j.j.j.j.j.j.j.",
"j.j.j.j.j.j.j.j.j.j.j.j.j.j.j.j.j.j.j.j.j.j.j.j.j.j.j.j.j.j.j.j.j.j.j.j.j.j.j.j.j.j.j.j.j.j.j.j.j.j.j.j.d d j.j.j.j.j.j.j.j.j.j.",
"j.j.j.j.j.j.j.j.j.j.j.j.j.j.j.j.j.j.j.j.j.j.j.j.j.j.j.j.j.j.j.j.j.j.j.j.j.j.j.j.j.j.j.j.j.j.j.j.j.j.j.j.j.j.j.j.j.j.j.j.j.j.j.j.",
"j.j.j.j.j.j.j.j.j.j.j.j.j.j.j.j.j.j.j.j.j.d d d j.j.j.j.j.j.j.j.j.j.j.j.j.j.j.j.j.j.j.j.j.j.j.j.j.j.j.j.j.j.j.j.j.j.j.j.j.j.j.j.",
"j.j.j.j.j.j.j.j.j.j.j.j.j.j.j.j.j.j.j.j.j.d d d d d j.j.j.j.j.j.j.j.j.j.j.j.j.j.j.j.j.j.j.j.j.j.j.j.j.j.j.j.j.j.j.j.j.j.j.j.j.j.",
"j.j.j.j.j.j.j.j.j.j.j.j.j.j.j.j.j.j.j.j.j.d d d d d d j.j.j.j.j.j.j.j.j.j.j.j.j.j.j.j.j.j.j.j.j.j.j.j.j.j.j.j.j.j.j.j.j.j.j.j.j.",
"j.j.j.j.j.j.j.j.j.j.j.j.j.j.j.j.j.j.j.j.j.j.d d d d d j.j.j.j.j.j.j.j.j.j.j.j.j.j.j.j.j.j.j.j.j.j.j.j.j.j.j.j.j.j.j.j.j.j.j.j.j.",
"j.j.j.j.j.j.j.j.j.j.j.j.j.j.j.j.j.j.j.j.j.j.j.j.d j.j.j.j.j.j.j.j.j.j.j.j.j.j.j.j.j.j.j.j.j.j.j.j.j.j.j.j.j.j.j.j.j.j.j.j.j.j.j.",
"j.j.j.j.j.j.j.j.j.j.j.j.j.j.j.j.j.j.j.j.j.j.j.j.j.j.j.j.j.j.j.j.j.j.j.j.j.j.j.j.j.j.j.j.j.j.j.j.j.j.j.j.j.j.j.j.j.j.j.j.j.j.j.j.",
"j.j.j.j.j.j.j.j.j.j.j.j.j.j.j.j.j.j.j.j.j.j.j.j.j.j.j.j.j.j.j.j.j.j.j.j.j.j.j.j.j.j.j.j.j.j.j.j.j.j.j.j.j.j.j.j.j.j.j.j.j.j.j.j.",
"j.j.j.j.j.j.j.j.j.j.j.j.j.j.j.j.j.j.j.j.j.j.j.j.d d j.j.j.j.j.j.j.j.j.j.j.j.j.j.j.j.j.j.j.j.j.j.j.j.j.j.j.j.j.j.j.j.j.j.j.j.j.j."
};
